<?xml version="1.0" encoding="utf-8"?>
<!-- Generator: Adobe Illustrator 25.2.1, SVG Export Plug-In . SVG Version: 6.00 Build 0)  -->
<svg version="1.1" id="Layer_1" xmlns="http://www.w3.org/2000/svg" xmlns:xlink="http://www.w3.org/1999/xlink" x="0px" y="0px"
	 viewBox="0 0 512 512" style="enable-background:new 0 0 512 512;" xml:space="preserve">
<style type="text/css">
	.st0{fill:#0076CE;}
</style>
<path class="st0" d="M512,288c0,27.8-10.2,51.4-30.6,70.5c-18.1,17-42.7,25.5-67.5,25.5H288v96c0,17.7-14.2,32-31.9,32
	s-33-14.3-33-32l0.9-96l-125.9,0c-24.8,0-49.4-8.5-67.4-25.5C10.2,339.4,0,315.8,0,288c0-19.4,5.4-36.1,16-52.1s25-27.6,43-35
	c-9.4-16-12.9-32.5-10.5-49.5s9.1-31.6,20.5-44s25.1-20.5,41.5-24.5s32.9-3.3,49.5,4.1c2.6-24.6,13.1-45.4,31.5-62S231.4,0,256,0
	s46.1,8.4,64.5,25s28.9,37.4,31.5,62c16.6-7.4,33.1-8.1,49.5-4.1S431.6,95,443,107.4s18.1,27,20.5,44s-0.9,33.5-9.5,49.5h-1
	c18,7.4,32.4,19,43,35S512,268.6,512,288z"/>
</svg>
