<?xml version="1.0" encoding="utf-8"?>
<!-- Generator: Adobe Illustrator 25.2.1, SVG Export Plug-In . SVG Version: 6.00 Build 0)  -->
<svg version="1.1" id="Layer_1" xmlns="http://www.w3.org/2000/svg" xmlns:xlink="http://www.w3.org/1999/xlink" x="0px" y="0px"
	 viewBox="0 0 640 512" style="enable-background:new 0 0 640 512;" xml:space="preserve">
<style type="text/css">
	.st0{fill:#0076CE;}
</style>
<path class="st0" d="M194.3,143.8c-1.4-5.1-2.3-10.4-2.3-15.7c0-35.2,28.8-64,64-64s64,28.8,64,64c0,11.2-3.1,21.5-8.2,30.8l8.2,1
	l155.3-19.8L511,41.8c2.1-8.4-1.2-17.5-9.6-20.5L445.9,1c-8.2-2.1-17.5,1.3-20.5,9.6l-41.6,114.4C382,55.8,325.8,0,256,0
	c-70.7,0-128,57.3-128,128c0,2.5,0.6,4.9,0.8,7.4L194.3,143.8z M638.3,271.8L586.8,169c-3-6.2-9.8-9.8-16.6-8.9L320,192l91.7,152.1
	c3.8,6.2,11.4,9.3,18.5,7.3l197.9-56.5C638,292,642.8,281,638.3,271.8z M228.3,344.1L320,192L69.8,160.1c-6.9-0.8-13.6,2.7-16.6,8.9
	L1.8,271.8c-4.6,9.3,0.3,20.3,10,23l197.1,56.5C216.8,353.4,224.4,350.4,228.3,344.1z M425.8,385.3c-17,0-32.9-8.9-41.5-23.2
	L320,256l-64.2,106c-8.6,14.4-24.5,23.4-41.5,23.4c-4.5,0-9-0.6-13.2-1.9l-137-39v81c0,14.7,10,27.4,24.2,30.8l216.1,53.8
	c10.2,2.5,20.9,2.5,31,0l216.4-53.8c13.3-3.6,24.2-16.3,24.2-30.8v-81l-137,38.9C434.8,384.6,430.3,385.3,425.8,385.3z"/>
</svg>
