<?xml version="1.0" encoding="utf-8"?>
<!-- Generator: Adobe Illustrator 25.2.1, SVG Export Plug-In . SVG Version: 6.00 Build 0)  -->
<svg version="1.1" id="Layer_1" xmlns="http://www.w3.org/2000/svg" xmlns:xlink="http://www.w3.org/1999/xlink" x="0px" y="0px"
	 viewBox="0 0 448 512" style="enable-background:new 0 0 448 512;" xml:space="preserve">
<style type="text/css">
	.st0{fill:#0076CE;}
</style>
<path class="st0" d="M447.6,158.8L391.2,53.9C386.9,40.8,374.8,32,360.9,32H240v128h206.8C447.1,159.5,447.3,159.3,447.6,158.8z
	 M0,192v240c0,26.5,21.5,48,48,48h352c26.5,0,48-21.5,48-48V192H0z M276.2,372.4c-3.1,17.8-16.8,29.4-36.2,33.2V416
	c0,8.8-7.2,16-16,16s-16-7.2-16-16v-10.7c-7.8-1.6-15.7-4.2-22.8-6.8l-3.5-1.3c-8.3-2.9-12.7-12.1-9.7-20.4
	c3-8.3,12.1-12.7,20.4-9.7l3.7,1.3c6.9,2.5,14.7,5.3,20,6.2c12.8,2,26.4,0,27.7-7.7c1-5.5,0.3-8.3-25.1-15.6l-5-1.5
	c-14.7-4.3-49-14.4-42.8-50.3c3.1-17.9,16.7-29.8,36.2-33.5V256c0-8.8,7.2-16,16-16s16,7.2,16,16v10.9c5.5,1.2,11.3,2.6,16.9,4.5
	c8.4,2.9,12.8,12,9.9,20.3c-2.9,8.4-12.1,12.7-20.3,9.9c-5.2-1.8-10.6-3.5-15.5-4.2c-12.8-2.1-26.3,0-27.6,7.7
	c0,4.5-1.4,7.8,21.1,14.1l4.8,1.4C248.6,326.4,282.5,336.1,276.2,372.4z M208,160V32H87.1c-13.9,0-26,8.8-30.4,21.9L0.4,158.8
	c0.4,0.5,0.5,0.7,0.9,1.2H208z"/>
</svg>
