<?xml version="1.0" encoding="utf-8"?>
<!-- Generator: Adobe Illustrator 25.2.1, SVG Export Plug-In . SVG Version: 6.00 Build 0)  -->
<svg version="1.1" id="Layer_1" focusable="false" xmlns="http://www.w3.org/2000/svg" xmlns:xlink="http://www.w3.org/1999/xlink"
	 x="0px" y="0px" viewBox="0 0 576 512" style="enable-background:new 0 0 576 512;" xml:space="preserve">
<style type="text/css">
	.st0{fill:#0076CE;}
</style>
<path class="st0" d="M275.2,250.5c7,7.4,18.5,7.4,25.5,0l108.1-114.2c31.5-33.1,29.7-88.1-5.6-118.7c-30.9-26.8-76.8-21.9-104.9,7.7
	l-11.2,11.6l-10.3-11.6c-28.1-29.6-74.1-34.5-105.7-7.7c-34.4,30.6-36.4,85.6-4.7,118.7L275.2,250.5z M568.2,336.3
	c-13.1-17.8-38.1-21.7-55.9-8.5L392.6,416H272c-8.7,0-15.1-7.2-15.1-15.1c0-8.7,7.2-15.1,15.1-15.1h78.2c15.1,0,30.8-10.9,33.4-26.6
	c3.2-19.1-12.1-37.4-31.6-37.4H191.1c-26.1,0-53.1,9.2-74.1,26.2l-46.5,37.7l-55.4,0c-8.7,0-15.1,7.3-15.1,16L0,496
	c0,8.8,7.3,16,15.1,16h346.1c22,0,43.9-7.2,61.7-20.3L558,392.2C577.5,379.1,581.3,354.1,568.2,336.3z"/>
</svg>
