<?xml version="1.0" encoding="utf-8"?>
<!-- Generator: Adobe Illustrator 25.2.1, SVG Export Plug-In . SVG Version: 6.00 Build 0)  -->
<svg version="1.1" id="Layer_1" xmlns="http://www.w3.org/2000/svg" xmlns:xlink="http://www.w3.org/1999/xlink" x="0px" y="0px"
	 viewBox="0 0 640 512" style="enable-background:new 0 0 640 512;" xml:space="preserve">
<style type="text/css">
	.st0{fill:#0076CE;}
</style>
<path class="st0" d="M496,224c-79.6,0-144,64.4-144,144s64.4,144,144,144s144-64.4,144-144S575.6,224,496,224z M544,384h-54.2
	c-5.4,0-9.8-4.4-9.8-9.7V304c0-8.8,7.2-16,16-16s16,7.2,16,16v48h32c8.8,0,16,7.2,16,16C560,376.8,552.8,384,544,384z M320.1,352
	H208c-8.8,0-16-7.2-16-16v-48H0v144c0,25.6,22.4,48,48,48h312.2c-25.1-30.4-40.2-69.5-40.2-112C320,362.6,320.5,357.3,320.1,352z
	 M496,192c5.4,0,10.7,0.3,16,0.8V144c0-25.6-22.4-48-48-48h-80V48c0-25.6-22.4-48-48-48H176c-25.6,0-48,22.4-48,48v48H48
	c-25.6,0-48,22.4-48,48v112h360.2C392.5,216.9,441.3,192,496,192z M336,96H176V48h160V96z"/>
</svg>
